{"title":"Humpty Sharma Ki Dulhania 2014 Hindi Movies Non Retail DVDRip +S","uid":10533883,"size":740328803,"categoryP":"video","categoryS":"movies","magnet":"?xt=urn:btih:9260c7123ec0304b3c70689e31ac7bac75ed1cd2&amp;dn=Humpty+Sharma+Ki+Dulhania+2014+Hindi+Movies+Non+Retail+DVDRip+%2BS&amp;tr=udp%3A%2F%2Ftracker.openbittorrent.com%3A80&amp;tr=udp%3A%2F%2Fopen.demonii.com%3A1337&amp;tr=udp%3A%2F%2Ftracker.coppersurfer.tk%3A6969&amp;tr=udp%3A%2F%2Fexodus.desync.com%3A6969","seeders":2,"leechers":0,"uploader":"basicssom","files":2,"time":1405138182,"description":"Humpty Sharma Ki Dulhania 2014 Hindi Movies Non Retail DVDRip +Sample ~ ?rDX?\nPOSTER: &lt;a href=&quot;\nhttp://istoreimg.com/upload/big/2014/07/11/53bfa646370ea.jpg&quot; rel=&quot;nofollow&quot; target=&quot;_NEW&quot;&gt;\nhttp://istoreimg.com/upload/big/2014/07/11/53bfa646370ea.jpg&lt;/a&gt;\nSCREEN SHOTS : &lt;a href=&quot;\nhttp://planethost.co.nr/7/HumptySharmaKiDulhaniad/1.html&quot; rel=&quot;nofollow&quot; target=&quot;_NEW&quot;&gt;\nhttp://planethost.co.nr/7/HumptySharmaKiDulhaniad/1.html&lt;/a&gt; &lt;a href=&quot;\nhttp://planethost.co.nr/7/HumptySharmaKiDulhaniad/2.html&quot; rel=&quot;nofollow&quot; target=&quot;_NEW&quot;&gt;\nhttp://planethost.co.nr/7/HumptySharmaKiDulhaniad/2.html&lt;/a&gt; &lt;a href=&quot;\nhttp://planethost.co.nr/7/HumptySharmaKiDulhaniad/3.html&quot; rel=&quot;nofollow&quot; target=&quot;_NEW&quot;&gt;\nhttp://planethost.co.nr/7/HumptySharmaKiDulhaniad/3.html&lt;/a&gt; &lt;a href=&quot;\nhttp://planethost.co.nr/7/HumptySharmaKiDulhaniad/4.html&quot; rel=&quot;nofollow&quot; target=&quot;_NEW&quot;&gt;\nhttp://planethost.co.nr/7/HumptySharmaKiDulhaniad/4.html&lt;/a&gt; &lt;a href=&quot;\nhttp://planethost.co.nr/7/HumptySharmaKiDulhaniad/5.html&quot; rel=&quot;nofollow&quot; target=&quot;_NEW&quot;&gt;\nhttp://planethost.co.nr/7/HumptySharmaKiDulhaniad/5.html&lt;/a&gt; &lt;a href=&quot;\nhttp://planethost.co.nr/7/HumptySharmaKiDulhaniad/6.html&quot; rel=&quot;nofollow&quot; target=&quot;_NEW&quot;&gt;\nhttp://planethost.co.nr/7/HumptySharmaKiDulhaniad/6.html&lt;/a&gt; &lt;a href=&quot;\nhttp://planethost.co.nr/7/HumptySharmaKiDulhaniad/7.html&quot; rel=&quot;nofollow&quot; target=&quot;_NEW&quot;&gt;\nhttp://planethost.co.nr/7/HumptySharmaKiDulhaniad/7.html&lt;/a&gt; &lt;a href=&quot;\nhttp://planethost.co.nr/7/HumptySharmaKiDulhaniad/8.html&quot; rel=&quot;nofollow&quot; target=&quot;_NEW&quot;&gt;\nhttp://planethost.co.nr/7/HumptySharmaKiDulhaniad/8.html&lt;/a&gt; &lt;a href=&quot;\nhttp://planethost.co.nr/7/HumptySharmaKiDulhaniad/9.html&quot; rel=&quot;nofollow&quot; target=&quot;_NEW&quot;&gt;\nhttp://planethost.co.nr/7/HumptySharmaKiDulhaniad/9.html&lt;/a&gt; &lt;a href=&quot;\nhttp://planethost.co.nr/7/HumptySharmaKiDulhaniad/10.html&quot; rel=&quot;nofollow&quot; target=&quot;_NEW&quot;&gt;\nhttp://planethost.co.nr/7/HumptySharmaKiDulhaniad/10.html&lt;/a&gt;\nFormat : Matroska\nFormat version : Version 4 / Version 2\nFile size : 700 MiB\nOverall bit rate : 752 Kbps\nMovie name : Humpty Sharma Ki Dulhania 2014 Hindi Movies Non Retail DVDRip ~ rDX ~\nVideo\nID : 1\nFormat : AVC\nFormat/Info : Advanced Video Codec\nFormat profile : &lt;a class=&quot;__cf_email__&quot; href=&quot;/cdn-cgi/l/email-protection&quot; data-cfemail=&quot;db93b2bcb39b97e9f5ea&quot;&gt;[email&amp;#160;protected]&lt;/a&gt;&lt;script cf-hash='f9e31' type=&quot;text/javascript&quot;&gt;\n/* &lt;![CDATA[ */!function(){try{var t=&quot;currentScript&quot;in document?document.currentScript:function(){for(var t=document.getElementsByTagName(&quot;script&quot;),e=t.length;e--;)if(t[e].getAttribute(&quot;cf-hash&quot;))return t[e]}();if(t&amp;&amp;t.previousSibling){var e,r,n,i,c=t.previousSibling,a=c.getAttribute(&quot;data-cfemail&quot;);if(a){for(e=&quot;&quot;,r=parseInt(a.substr(0,2),16),n=2;a.length-n;n+=2)i=parseInt(a.substr(n,2),16)^r,e+=String.fromCharCode(i);e=document.createTextNode(e),c.parentNode.replaceChild(e,c)}}}catch(u){}}();/* ]]&gt; */&lt;/script&gt;\nFormat settings, CABAC : Yes\nFormat settings, ReFrames : 4 frames\nCodec ID : V_MPEG4/ISO/AVC\nBit rate : 669 Kbps\nWidth : 640 pixels\nHeight : 272 pixels\nDisplay aspect ratio : 2.35:1\nFrame rate mode : Constant\nFrame rate : 23.976 fps\nColor space : YUV\nChroma subsampling : 4:2:0\nBit depth : 8 bits\nScan type : Progressive\nBits/(Pixel*Frame) : 0.160\nStream size : 612 MiB (87%)\nTitle : ~ rDX ~\nWriting library : x264\nLanguage : Hindi\nDefault : Yes\nForced : No\nAudio\nID : 2\nFormat : MPEG Audio\nFormat version : Version 1\nFormat profile : Layer 3\nMode : Joint stereo\nMode extension : MS Stereo\nCodec ID : A_MPEG/L3\nCodec ID/Hint : MP3\nBit rate mode : Constant\nBit rate : 80.0 Kbps\nChannel(s) : 2 channels\nSampling rate : 32.0 KHz\nCompression mode : Lossy\nStream size : 75.1 MiB (11%)\nTitle : ~ rDX ~\nWriting library : LAME3.99r\nEncoding settings : -m j -V 4 -q 2 -lowpass 13.5 -b 80\nLanguage : Hindi\nDefault : Yes\nForced : N o","torrent":{"xt":"urn:btih:9260c7123ec0304b3c70689e31ac7bac75ed1cd2","amp;dn":"Humpty+Sharma+Ki+Dulhania+2014+Hindi+Movies+Non+Retail+DVDRip+%2BS","amp;tr":["udp%3A%2F%2Ftracker.openbittorrent.com%3A80","udp%3A%2F%2Fopen.demonii.com%3A1337","udp%3A%2F%2Ftracker.coppersurfer.tk%3A6969","udp%3A%2F%2Fexodus.desync.com%3A6969"],"infoHash":"9260c7123ec0304b3c70689e31ac7bac75ed1cd2","infoHashBuffer":{"type":"Buffer","data":[146,96,199,18,62,192,48,75,60,112,104,158,49,172,123,172,117,237,28,210]},"announce":[],"urlList":[]}}